<?xml version="1.0" encoding="utf-8"?>
<!-- Generator: Adobe Illustrator 23.0.1, SVG Export Plug-In . SVG Version: 6.00 Build 0)  -->
<svg version="1.1" id="Capa_1" xmlns="http://www.w3.org/2000/svg" xmlns:xlink="http://www.w3.org/1999/xlink" x="0px" y="0px"
	 viewBox="0 0 512 512" style="enable-background:new 0 0 512 512;" xml:space="preserve">
<style type="text/css">
	.st0{fill:#009D54;}
	.st1{fill:#00B1D1;}
	.st2{fill:#B52BB3;}
	.st3{fill:#FEE617;}
	.st4{opacity:0.5;fill:#FEE617;enable-background:new    ;}
	.st5{fill:#4E2E65;}
	.st6{fill:#FFFFFF;}
</style>
<g id="Solaris_Icon">
	<path class="st1" d="M312.2,180.1c34,0,68,0,102.1,0c12.4,0,18.5,5.3,20.7,17.5c9.1,50.9,18.3,101.8,27.5,152.7
		c2,11.2,4.2,22.4,6.1,33.7c1.9,10.9-6.4,20.3-18.1,20.4c-14.5,0.1-29,0-43.4,0c-24.5,0-48.9,0.1-73.4-0.1c-3.3,0-4.1,0.8-4,4
		c0.3,7.2,0.2,14.5,0,21.7c-0.1,2.8,0.8,3.3,3.4,3.3c10.9-0.1,21.7-0.1,32.6-0.1c11.6,0,19.8,7.4,19.7,17.9
		c-0.1,10.3-8.1,17.6-19.5,17.6c-35.5,0-70.9,0-106.4,0c-8.3,0-14.8-4.6-17.3-11.9c-2.5-7.2-0.1-15.2,6-19.8
		c3.5-2.7,7.4-3.7,11.8-3.7c10.3,0,20.6-0.1,30.8,0.1c2.7,0,3.7-0.5,3.6-3.5c-0.2-7.1-0.3-14.2,0-21.3c0.1-3.3-0.7-4.3-4.2-4.3
		c-38.2,0.1-76.4,0.1-114.7,0.1c-14.4,0-22-8.8-19.5-22.9c8.8-49.2,17.7-98.4,26.5-147.6c2.2-12.2,4.5-24.4,6.6-36.7
		c2-11.6,8.3-17.1,20.2-17.1C243.6,180.1,277.9,180.1,312.2,180.1z M194.3,368.6c0.6,0.1,1,0.3,1.4,0.3c32,0,64,0,95.9,0.1
		c2.7,0,2.6-1.2,2.6-3.1c0-21.3-0.1-42.5,0-63.8c0-2.8-0.9-3.3-3.5-3.3c-9.3,0.1-18.5,0.1-27.8,0.1c-17.5,0-35,0-52.5,0
		c-1.7,0-3.6-0.7-4.1,2.3C202.5,323.7,198.3,346.1,194.3,368.6z M429.7,368.8c-4-22-8-43.9-11.8-65.8c-0.6-3.2-1.5-4.2-4.8-4.2
		c-26.5,0.1-52.9,0.2-79.4,0c-3.4,0-4,1.1-4,4.2c0.1,20.7,0.1,41.4,0,62c0,3.1,0.6,4.1,3.9,4.1c30.8-0.2,61.6-0.1,92.4-0.1
		C427.2,369,428.3,368.9,429.7,368.8z M253.5,263.5c12.3,0,24.6-0.1,36.9,0.1c2.8,0,4-0.3,4-3.6c-0.2-13.7-0.2-27.5,0-41.2
		c0-2.7-0.8-3.4-3.4-3.3c-21.8,0.1-43.7,0.1-65.5,0c-3.1,0-3.8,1.1-4.3,3.9c-2.3,13.5-4.7,27-7.4,40.5c-0.6,3.3,0.2,3.9,3.3,3.9
		C229.2,263.4,241.3,263.5,253.5,263.5z M369.9,263.5c12.6,0,25.2-0.1,37.7,0c2.5,0,3.2-0.5,2.7-3.2c-2.6-13.9-5.1-27.8-7.6-41.7
		c-0.4-2.4-1.3-3.3-3.9-3.3c-21.8,0.1-43.7,0.1-65.5,0c-2.8,0-3.7,0.6-3.6,3.5c0.2,13.6,0.2,27.2,0,40.8c-0.1,3.5,1.2,3.9,4.2,3.9
		C345.9,263.4,357.9,263.5,369.9,263.5z"/>
	<path class="st2" d="M99.4,182.5c0.1-39.1,18.5-66.4,47-77.6c28.4-11.3,60.6-4.1,81.6,18.2c8.1,8.6,8.4,19.4,0.8,26.6
		s-18.3,6.3-26.5-2.1c-10.8-11.1-23.9-15-38.8-10.9s-24.3,14.2-27.8,29.2c-2.7,11.9-0.1,23,7.6,32.6c3.4,4.2,5.7,8.7,5.3,14.2
		c-0.5,7.2-5,13.2-11.9,15.6s-14.3,0.5-19.3-5.3C105.4,208.9,99.4,192.6,99.4,182.5z"/>
	<path class="st2" d="M88,264c-11.7-0.1-20-11.1-16.9-22.4c2-7.3,12.2-16.2,19.8-17c12.6-1.5,22.5,9.8,19.3,22.1
		C107.9,255.3,96.7,264.1,88,264z"/>
	<path class="st2" d="M64.5,183.1c-12-0.5-18.3-4.5-20.7-13.4c-3-10.8,5-21.9,16.2-22.2c3-0.1,6.1,0.1,9.1,0.5
		c10.4,1.4,16.8,9.4,15.9,19.6c-0.9,9.2-8.9,15.8-18.7,15.6C65.7,183.1,65.1,183.1,64.5,183.1z"/>
	<path class="st2" d="M234.2,103.5c-1.4-10.3,16-25.9,27.9-21.3c9.3,3.6,14.6,13.2,11.4,22.6c-3.4,10.1-16,17.9-25.5,15.9
		C240,118.9,234.3,111.8,234.2,103.5z"/>
	<path class="st2" d="M98.8,70.7c10.4-1.3,25.1,15.1,21.6,27c-2.7,9.1-12.3,15.1-21.5,12.6c-8.8-2.3-17.5-13.2-17.6-21.9
		C81.3,78.6,89,70.8,98.8,70.7z"/>
	<path class="st2" d="M161.9,65.3c0.3-2.7,0.4-5.5,1-8.2c1.8-8.5,10.1-14.6,18.5-13.7c9.2,0.9,16.2,8.2,16.3,17.2
		c0,2.5-0.1,4.9-0.4,7.4c-1.3,11.1-9,17.8-19.5,17C168.2,84.3,161.8,76.2,161.9,65.3z"/>
</g>
</svg>
