<?xml version="1.0" encoding="utf-8"?>
<!-- Generator: Adobe Illustrator 23.0.1, SVG Export Plug-In . SVG Version: 6.00 Build 0)  -->
<svg version="1.1" id="Capa_1" xmlns="http://www.w3.org/2000/svg" xmlns:xlink="http://www.w3.org/1999/xlink" x="0px" y="0px"
	 viewBox="0 0 512 512" style="enable-background:new 0 0 512 512;" xml:space="preserve">
<style type="text/css">
	.st0{fill:#009D54;}
	.st1{fill:#00B1D1;}
	.st2{fill:#B52BB3;}
	.st3{fill:#FEE617;}
	.st4{opacity:0.5;fill:#FEE617;enable-background:new    ;}
	.st5{fill:#4E2E65;}
	.st6{fill:#FFFFFF;}
</style>
<g id="Corriente_Icon">
	<path class="st3" d="M451,19.8H332.8c-11,0-21.4,4.2-29.3,11.8l-30.3,29c-1.7-0.3-3.4-0.4-5.2-0.4h-23.7c-1.8,0-3.5,0.1-5.2,0.4
		l-30.3-29c-7.9-7.6-18.4-11.8-29.3-11.8H61c-22.7,0-41.3,18.5-41.3,41.2v325.7c0,22.7,18.5,41.2,41.3,41.2h44.7v29.5
		c0,19.3,15.7,34.9,34.9,34.9h230.7c19.3,0,34.9-15.7,34.9-34.9v-29.5h44.7c22.7,0,41.3-18.5,41.3-41.2V61
		C492.3,38.2,473.8,19.8,451,19.8z M242.4,88.2c0.5-0.2,1.1-0.4,1.7-0.4h23.7c0.6,0,1.2,0.1,1.7,0.4c0.2,0.1,0.3,0.2,0.5,0.3
		c1.1,0.7,1.8,1.9,1.8,3.3v8.1h-31.7v-8.1c0-1.4,0.7-2.6,1.8-3.3C242.1,88.3,242.3,88.2,242.4,88.2z M225.4,157
		c9.3-7,14.8-17.7,14.8-28.4v-1h31.7v1c0,11.2,5.1,21.5,13.7,27.6c13.9,9.8,21.9,25.2,21.9,42.1c0,13.6-5.2,26.5-14.7,36.2
		c-9.6,9.8-22.7,15.3-36.7,15.3c-13.9-0.1-26.8-5.4-36.5-15.2c-9.6-9.7-14.9-22.6-14.9-36.3C204.6,181.8,212.1,166.8,225.4,157z
		 M133.4,457.3v-86.7c0-4,3.3-7.2,7.3-7.2h101.5v101.2H140.7C136.7,464.7,133.4,461.3,133.4,457.3z M378.6,457.3
		c0,4-3.3,7.2-7.3,7.2H269.9V363.3h101.5c4,0,7.3,3.3,7.3,7.3v86.7H378.6z M464.6,386.7c0,7.5-6.1,13.5-13.6,13.5h-44.7v-29.5
		c0-19.3-15.7-34.9-34.9-34.9H140.7c-19.3,0-34.9,15.7-34.9,34.9v29.5H61c-7.5,0-13.6-6.1-13.6-13.5V61c0-7.5,6.1-13.5,13.6-13.5
		h118.3c3.8,0,7.5,1.5,10.2,4.1L216.2,77c-2.3,4.4-3.6,9.4-3.6,14.7l-0.1,36.8c0,1.7-1,4.3-3.8,6.4c-20.2,15.1-31.8,38.2-31.8,63.3
		c0,21.1,8.2,40.9,23,55.8c14.9,15,34.8,23.3,56.1,23.3l0,0c21.6,0,41.6-8.4,56.5-23.6c14.6-14.9,22.6-34.6,22.6-55.5
		c0-25.7-12.6-49.9-33.6-64.7c-0.9-0.6-2-2.3-2-5V91.7c0-5.3-1.3-10.3-3.6-14.7l26.7-25.4c2.8-2.6,6.4-4.1,10.2-4.1h118.3
		c7.5,0,13.6,6.1,13.6,13.5v325.7H464.6z"/>
	<path class="st2" d="M210.4,400.2h-8.7v-8.7c0-7.6-6.2-13.8-13.8-13.8s-13.8,6.2-13.8,13.8v8.7h-8.8c-7.6,0-13.8,6.2-13.8,13.8
		c0,7.6,6.2,13.8,13.8,13.8h8.7v8.7c0,7.6,6.2,13.8,13.8,13.8s13.8-6.2,13.8-13.8v-8.7h8.7c7.6,0,13.8-6.2,13.8-13.8
		C224.2,406.5,218,400.2,210.4,400.2z"/>
	<path class="st1" d="M346.2,400.2h-45c-7.6,0-13.8,6.2-13.8,13.8c0,7.6,6.2,13.8,13.8,13.8h45c7.6,0,13.8-6.2,13.8-13.8
		C360,406.5,353.8,400.2,346.2,400.2z"/>
</g>
</svg>
