<?xml version="1.0" encoding="utf-8"?>
<!-- Generator: Adobe Illustrator 23.0.1, SVG Export Plug-In . SVG Version: 6.00 Build 0)  -->
<svg version="1.1" id="Capa_1" xmlns="http://www.w3.org/2000/svg" xmlns:xlink="http://www.w3.org/1999/xlink" x="0px" y="0px"
	 viewBox="0 0 512 512" style="enable-background:new 0 0 512 512;" xml:space="preserve">
<style type="text/css">
	.st0{fill:#009D54;}
	.st1{fill:#00B1D1;}
	.st2{fill:#B52BB3;}
	.st3{fill:#FEE617;}
	.st4{opacity:0.5;fill:#FEE617;enable-background:new    ;}
	.st5{fill:#4E2E65;}
	.st6{fill:#FFFFFF;}
</style>
<g id="Veleta_Icon">
	<g>
		<path class="st5" d="M110.4,312l2.8-7.3l290,111.5l-2.8,7.3L110.4,312z"/>
		<path class="st5" d="M110.1,416.3l290-111.2l2.8,7.3l-290,111.2L110.1,416.3z"/>
		<path class="st5" d="M54.9,269H63l9.7,37.9L83.1,269h8.6l9.7,37.7l9.7-37.7h8.2l-13.8,46.6h-8.6L87,280.4l-10.4,35.3l-8.6,0.1
			L54.9,269z"/>
		<path class="st5" d="M442,269v46.6h-7.6l-23-34.8v34.8h-7.6V269h7.6l23,34.7V269H442z"/>
	</g>
	<path class="st6" d="M247.4,65.6h17.3v415.5h-17.3L247.4,65.6L247.4,65.6z"/>
	<path class="st5" d="M264.7,485h-17.3c-2.2,0-3.9-1.8-3.9-3.9V65.6c0-2.2,1.8-3.9,3.9-3.9h17.3c2.2,0,3.9,1.8,3.9,3.9v415.5
		C268.6,483.3,266.8,485,264.7,485z M251.3,477.2h9.4V69.5h-9.4L251.3,477.2L251.3,477.2z"/>
	<path class="st5" d="M91.5,439.1c-9.3,0-16.5-5.1-16.5-13.3h8.2c0.3,3.8,3,6.9,8.3,6.9c5.4,0,8.4-2.9,8.4-6.8
		c0-11.3-24.7-4-24.7-21.1c0-8.2,6.5-13.3,16-13.3c8.9,0,15.2,4.7,15.9,12.7h-8.4c-0.3-3.1-3-6-7.8-6.2c-4.4-0.1-7.8,2-7.8,6.5
		c0,10.5,24.7,4,24.7,21C107.6,432.4,101.9,439.1,91.5,439.1L91.5,439.1z"/>
	<path class="st5" d="M391.1,207h-47c-1.5,0-2.9-0.9-3.6-2.3c-0.6-1.4-0.4-3,0.6-4.2l31.8-36.6H162.7l-19.2,40.9
		c-0.6,1.4-2,2.2-3.5,2.2H77.3c-1.3,0-2.6-0.7-3.3-1.8c-0.7-1.1-0.8-2.6-0.2-3.8l27.1-57.8L73.8,85.8c-0.6-1.2-0.5-2.6,0.2-3.8
		c0.7-1.1,2-1.8,3.3-1.8h62.6c1.5,0,2.9,0.9,3.5,2.2l19.2,40.9h208.9l-30.4-36.7c-1-1.2-1.2-2.8-0.5-4.2c0.6-1.4,2-2.2,3.5-2.2h47
		c0.8,0,1.5,0.2,2.1,0.6l90.5,59.4c1.1,0.7,1.8,2,1.8,3.3s-0.7,2.5-1.8,3.3l-90.5,59.4C392.6,206.7,391.9,207,391.1,207L391.1,207z
		 M352.7,199.1h37.2l84.6-55.5l-84.6-55.5h-37.5l30.4,36.7c1,1.2,1.2,2.8,0.5,4.2c-0.6,1.4-2,2.2-3.5,2.2H160.2
		c-1.5,0-2.9-0.9-3.5-2.2l-19.2-40.9h-54l25.3,53.9c0.5,1,0.5,2.3,0,3.3l-25.3,53.9h54l19.2-40.9c0.6-1.4,2-2.2,3.5-2.2h221.3
		c1.5,0,2.9,0.9,3.6,2.3c0.6,1.4,0.4,3-0.6,4.2L352.7,199.1z"/>
	<path class="st6" d="M434.7,143.6L344.1,203l20.2-43.1H113.2L93,203H30.3l27.9-59.4L30.3,84.2H93l20.3,43.1h251.1l-20.2-43.1
		L434.7,143.6z"/>
	<path class="st5" d="M344.1,207c-0.9,0-1.8-0.3-2.6-1c-1.3-1.1-1.7-3-1-4.6l17.6-37.5H115.7l-19.2,40.9c-0.6,1.4-2,2.2-3.5,2.2
		H30.3c-1.3,0-2.6-0.7-3.3-1.8c-0.7-1.1-0.8-2.6-0.2-3.8l27.1-57.8L26.8,85.8c-0.6-1.2-0.5-2.6,0.2-3.8c0.7-1.1,2-1.8,3.3-1.8H93
		c1.5,0,2.9,0.9,3.5,2.2l19.2,40.9h242.5l-17.6-37.5c-0.7-1.6-0.3-3.5,1-4.6c1.3-1.2,3.2-1.3,4.7-0.3l90.5,59.4
		c1.1,0.7,1.8,2,1.8,3.3s-0.7,2.5-1.8,3.3l-90.5,59.4C345.6,206.7,344.9,207,344.1,207z M36.5,199.1h54l19.2-40.9
		c0.6-1.4,2-2.2,3.5-2.2h251.1c1.3,0,2.6,0.7,3.3,1.8c0.7,1.1,0.8,2.6,0.2,3.8l-14.4,30.6l74-48.6l-74-48.6l14.4,30.6
		c0.6,1.2,0.5,2.6-0.2,3.8s-2,1.8-3.3,1.8H113.2c-1.5,0-2.9-0.9-3.5-2.2L90.5,88.1h-54L61.8,142c0.5,1,0.5,2.3,0,3.3L36.5,199.1z"/>
	<path class="st5" d="M432.4,398.3h-18.1V412h16.1v6.2h-16.1v14.3h18.1v6.2h-25.7V392h25.7V398.3z"/>
	<ellipse class="st6" cx="256.1" cy="54.4" rx="23.5" ry="23.5"/>
	<path class="st6" d="M248.2,54.4c0-10.2,6.6-18.8,15.7-22c-2.5-0.9-5.1-1.4-7.8-1.4c-13,0-23.5,10.5-23.5,23.5S243.1,78,256.1,78
		c2.8,0,5.4-0.6,7.8-1.4C254.7,73.2,248.2,64.6,248.2,54.4L248.2,54.4z"/>
	<path class="st5" d="M256,81.8c-15.1,0-27.4-12.3-27.4-27.4S240.9,27,256,27s27.4,12.3,27.4,27.4S271.1,81.8,256,81.8L256,81.8z
		 M256,34.8c-10.8,0-19.6,8.8-19.6,19.6c0,10.8,8.8,19.6,19.6,19.6c10.8,0,19.6-8.8,19.6-19.6S266.8,34.8,256,34.8L256,34.8z"/>
</g>
</svg>
