<?xml version="1.0" encoding="utf-8"?>
<!-- Generator: Adobe Illustrator 23.0.1, SVG Export Plug-In . SVG Version: 6.00 Build 0)  -->
<svg version="1.1" id="Capa_1" xmlns="http://www.w3.org/2000/svg" xmlns:xlink="http://www.w3.org/1999/xlink" x="0px" y="0px"
	 viewBox="0 0 512 512" style="enable-background:new 0 0 512 512;" xml:space="preserve">
<style type="text/css">
	.st0{fill:#009D54;}
	.st1{fill:#00B1D1;}
	.st2{fill:#B52BB3;}
	.st3{fill:#FEE617;}
	.st4{opacity:0.5;fill:#FEE617;enable-background:new    ;}
	.st5{fill:#4E2E65;}
	.st6{fill:#FFFFFF;}
</style>
<g id="Humedad_icon">
	<path class="st1" d="M258.3,20.6c-2.2-4.2-7.3-5.9-11.5-3.7c-1.7,0.9-3.1,2.3-3.9,4.1l-57.8,129.2l-34.9-64.3
		c-1.5-2.8-4.4-4.6-7.6-4.5c-3.2,0-6.1,1.9-7.5,4.7L73,208.4c-20,39.2-4.4,87.2,34.8,107.2c1.7,0.9,3.4,1.7,5.1,2.4
		c-16.8,70.6,21.4,142.7,89.2,168.5c31.2,11.9,65.6,12.6,97.2,2.1l9.4-3.2c75.8-25.2,116.8-107.1,91.5-182.9
		c-2.3-6.9-5.1-13.6-8.4-20.1L258.3,20.6z M118,301.6c-31.5-14.5-45.3-51.7-30.8-83.2c0.3-0.7,0.7-1.5,1.1-2.2L143,108.5l33.4,61.5
		l-54.7,122.4C120.2,295.4,119.1,298.5,118,301.6z M381.1,396.5c-14.1,34.4-42.4,60.9-77.7,72.7l-9.4,3.1
		c-27.9,9.3-58.2,8.6-85.7-1.8c-65.8-25.1-98.8-98.7-73.8-164.5c0.9-2.2,1.8-4.5,2.8-6.7l114-255l125.5,245.9
		C393.7,323.3,395.3,362.1,381.1,396.5z"/>
	<path class="st1" d="M362.1,324.5L362.1,324.5c-4.8,0-8.6,3.8-8.6,8.5c-0.1,37.8-21.5,72.3-55.3,89.2c-4.2,2.1-6,7.2-3.9,11.5
		c2.1,4.2,7.2,6,11.5,3.9c0,0,0.1,0,0.1-0.1c39.5-19.8,64.6-60.2,64.7-104.4C370.6,328.3,366.8,324.5,362.1,324.5z"/>
	<path class="st1" d="M404.9,435.9H422V453h-17.1V435.9z"/>
	<path class="st1" d="M430.6,401.6h17.1v17.1h-17.1V401.6z"/>
	<path class="st1" d="M379.2,470.1h17.1v17.1h-17.1V470.1z"/>
</g>
</svg>
