<?xml version="1.0" encoding="utf-8"?>
<!-- Generator: Adobe Illustrator 23.0.1, SVG Export Plug-In . SVG Version: 6.00 Build 0)  -->
<svg version="1.1" id="Capa_1" xmlns="http://www.w3.org/2000/svg" xmlns:xlink="http://www.w3.org/1999/xlink" x="0px" y="0px"
	 viewBox="0 0 512 512" style="enable-background:new 0 0 512 512;" xml:space="preserve">
<style type="text/css">
	.st0{fill:#009D54;}
	.st1{fill:#00B1D1;}
	.st2{fill:#B52BB3;}
	.st3{fill:#FEE617;}
	.st4{opacity:0.5;fill:#FEE617;enable-background:new    ;}
	.st5{fill:#4E2E65;}
	.st6{fill:#FFFFFF;}
</style>
<g id="Lluvia_Icon">
	<path class="st1" d="M449.2,260.4c-9.8,6.5-21.1,9.9-32.9,9.9H288.1c16.1-12.3,26.5-31.7,26.5-53.5c0-17.8-6.9-34.6-19.4-47.3
		c-11.4-11.5-26.3-18.5-42.4-19.8c-7-16.3-18.4-30.3-33-40.7c-9-6.4-18.9-11.1-29.4-14c6.6-11.9,15.1-22.5,25.4-31.6
		c2.9-2.5,3.1-6.9,0.6-9.7c-2.5-2.9-6.9-3.1-9.7-0.6c-12.6,11.1-22.8,24.3-30.4,39.1c-3.9-0.5-7.9-0.7-11.9-0.7
		c-48.8,0-89.7,36.6-95.6,84.5c-26.4,3.9-46.4,26.4-46.4,53.8c0,30,24.4,54.4,54.4,54.4h339.6c14.5,0,28.5-4.2,40.5-12.2
		c3.2-2.1,4-6.4,1.9-9.6C456.7,259.2,452.4,258.4,449.2,260.4z M76.8,270.4c-22.4,0-40.6-18.2-40.6-40.6c0-22,17.2-39.8,39.1-40.5
		c3.6-0.1,6.4-2.9,6.7-6.5c2.6-43.4,38.8-77.4,82.3-77.4c34.2,0,65.3,21.5,77.3,53.5c1,2.7,3.5,4.4,6.4,4.5
		c29.1,0.4,52.8,24.3,52.8,53.5c0,29.5-24,53.5-53.5,53.5H76.8z"/>
	<path class="st1" d="M385.5,137c0.5,0,1.1-0.1,1.6-0.2c3.7-0.9,6-4.6,5.1-8.3c-1.3-5.6-3.2-11.1-5.5-16.4c-1.5-3.5-5.6-5.1-9.1-3.6
		s-5.1,5.6-3.6,9.1c2,4.6,3.6,9.3,4.7,14.1C379.6,134.9,382.4,137,385.5,137z"/>
	<path class="st1" d="M356.9,91.8c1.4,1.4,3.2,2.1,5,2.1c1.7,0,3.4-0.6,4.8-1.9c2.8-2.6,2.8-7,0.2-9.8
		c-19.3-20.1-45.3-31.2-73.1-31.2c-3.8,0-6.9,3.1-6.9,6.9s3.1,6.9,6.9,6.9C317.8,64.9,340.3,74.4,356.9,91.8z"/>
	<path class="st1" d="M132.9,340.5c0-2.5,0-10.1-14.9-32.5c-2.4-3.7-6.5-5.9-10.9-5.9s-8.5,2.2-10.9,5.9
		c-14.9,22.4-14.9,30-14.9,32.5c0,14.2,11.6,25.8,25.8,25.8C121.3,366.2,132.9,354.7,132.9,340.5z M95.1,340.5
		c0-2.7,3.1-10.5,12-23.9c8.8,13.4,12,21.3,12,23.9c0,6.6-5.4,12-12,12S95.1,347.1,95.1,340.5z"/>
	<path class="st1" d="M217.9,340.5c0-2.5,0-10.1-14.9-32.5c-2.4-3.7-6.5-5.9-10.9-5.9s-8.5,2.2-10.9,5.9
		c-14.9,22.4-14.9,30-14.9,32.5c0,14.2,11.6,25.8,25.8,25.8C206.4,366.2,217.9,354.7,217.9,340.5z M180.2,340.5
		c0-2.7,3.1-10.5,12-23.9c8.8,13.4,12,21.3,12,23.9c0,6.6-5.4,12-12,12C185.6,352.4,180.2,347.1,180.2,340.5z"/>
	<path class="st1" d="M303,340.5c0-2.5,0-10.1-14.9-32.5c-2.4-3.7-6.5-5.9-10.9-5.9s-8.5,2.2-10.9,5.9c-14.9,22.4-14.9,30-14.9,32.5
		c0,14.2,11.6,25.8,25.8,25.8C291.5,366.2,303,354.7,303,340.5z M265.3,340.5c0-2.7,3.1-10.5,12-23.9c8.8,13.4,12,21.3,12,23.9
		c0,6.6-5.4,12-12,12S265.3,347.1,265.3,340.5z"/>
	<path class="st1" d="M388.1,340.5c0-2.5,0-10.1-14.9-32.5c-2.4-3.7-6.5-5.9-10.9-5.9s-8.5,2.2-10.9,5.9
		c-14.9,22.4-14.9,30-14.9,32.5c0,14.2,11.6,25.8,25.8,25.8C376.6,366.2,388.1,354.7,388.1,340.5z M350.4,340.5
		c0-2.7,3.1-10.5,12-23.9c8.8,13.4,12,21.3,12,23.9c0,6.6-5.4,12-12,12S350.4,347.1,350.4,340.5z"/>
	<path class="st1" d="M107.1,427.4c-4.4,0-8.5,2.2-10.9,5.9c-14.9,22.4-14.9,30-14.9,32.5c0,14.2,11.6,25.8,25.8,25.8
		c14.2,0,25.8-11.6,25.8-25.8c0-2.5,0-10.1-14.9-32.5C115.6,429.6,111.5,427.4,107.1,427.4z M107.1,477.7c-6.6,0-12-5.4-12-12
		c0-2.7,3.1-10.5,12-23.9c8.8,13.4,12,21.3,12,23.9C119.1,472.4,113.7,477.7,107.1,477.7z"/>
	<path class="st1" d="M192.2,427.4c-4.4,0-8.5,2.2-10.9,5.9c-14.9,22.4-14.9,30-14.9,32.5c0,14.2,11.6,25.8,25.8,25.8
		c14.2,0,25.8-11.6,25.8-25.8c0-2.5,0-10.1-14.9-32.5C200.7,429.6,196.6,427.4,192.2,427.4z M192.2,477.7c-6.6,0-12-5.4-12-12
		c0-2.7,3.1-10.5,12-23.9c8.8,13.4,12,21.3,12,23.9C204.1,472.4,198.8,477.7,192.2,477.7z"/>
	<path class="st1" d="M277.3,427.4c-4.4,0-8.5,2.2-10.9,5.9c-14.9,22.4-14.9,30-14.9,32.5c0,14.2,11.6,25.8,25.8,25.8
		c14.2,0,25.8-11.6,25.8-25.8c0-2.5,0-10.1-14.9-32.5C285.7,429.6,281.7,427.4,277.3,427.4z M277.3,477.7c-6.6,0-12-5.4-12-12
		c0-2.7,3.1-10.5,12-23.9c8.8,13.4,12,21.3,12,23.9C289.2,472.4,283.9,477.7,277.3,477.7z"/>
	<path class="st1" d="M362.4,427.4c-4.4,0-8.5,2.2-10.9,5.9c-14.9,22.4-14.9,30-14.9,32.5c0,14.2,11.6,25.8,25.8,25.8
		c14.2,0,25.8-11.6,25.8-25.8c0-2.5,0-10.1-14.9-32.5C370.8,429.6,366.8,427.4,362.4,427.4z M362.4,477.7c-6.6,0-12-5.4-12-12
		c0-2.7,3.1-10.5,12-23.9c8.8,13.4,12,21.3,12,23.9C374.3,472.4,369,477.7,362.4,477.7z"/>
	<path class="st1" d="M175.4,402.4c0-2.5,0-10.1-14.9-32.5c-2.4-3.7-6.5-5.9-10.9-5.9s-8.5,2.2-10.9,5.9
		c-14.9,22.4-14.9,30-14.9,32.5c0,14.2,11.6,25.8,25.8,25.8S175.4,416.6,175.4,402.4z M149.6,414.4c-6.6,0-12-5.4-12-12
		c0-2.7,3.1-10.5,12-23.9c8.8,13.4,12,21.3,12,23.9C161.6,409,156.2,414.4,149.6,414.4z"/>
	<path class="st1" d="M260.5,402.4c0-2.5,0-10.1-14.9-32.5c-2.4-3.7-6.5-5.9-10.9-5.9s-8.5,2.2-10.9,5.9
		c-14.9,22.4-14.9,30-14.9,32.5c0,14.2,11.6,25.8,25.8,25.8S260.5,416.6,260.5,402.4z M234.7,414.4c-6.6,0-12-5.4-12-12
		c0-2.7,3.1-10.5,12-23.9c8.8,13.4,12,21.3,12,23.9C246.7,409,241.3,414.4,234.7,414.4z"/>
	<path class="st1" d="M345.6,402.4c0-2.5,0-10.1-14.9-32.5c-2.4-3.7-6.5-5.9-10.9-5.9s-8.5,2.2-10.9,5.9
		c-14.9,22.4-14.9,30-14.9,32.5c0,14.2,11.6,25.8,25.8,25.8S345.6,416.6,345.6,402.4z M319.8,414.4c-6.6,0-12-5.4-12-12
		c0-2.7,3.1-10.5,12-23.9c8.8,13.4,12,21.3,12,23.9C331.8,409,326.4,414.4,319.8,414.4z"/>
	<path class="st1" d="M404.9,364.1c-4.4,0-8.5,2.2-10.9,5.9c-14.9,22.4-14.9,30-14.9,32.5c0,14.2,11.6,25.8,25.8,25.8
		c14.2,0,25.8-11.6,25.8-25.8c0-2.5,0-10.1-14.9-32.5C413.4,366.4,409.3,364.1,404.9,364.1z M404.9,414.4c-6.6,0-12-5.4-12-12
		c0-2.7,3.1-10.5,12-23.9c8.8,13.4,12,21.3,12,23.9C416.9,409,411.5,414.4,404.9,414.4z"/>
	<path class="st1" d="M459.2,151.4c-10.1-7.3-21.8-11.9-34.1-13.3C418,71.5,361.5,20.4,293.9,20.4c-21.3,0-41.6,4.9-60.5,14.7
		c-3.4,1.8-4.7,5.9-3,9.3c1.8,3.4,5.9,4.7,9.3,3c16.9-8.7,35.1-13.1,54.1-13.1c62.4,0,114.1,48.7,117.9,110.9
		c0.2,3.6,3.1,6.4,6.7,6.5c11.8,0.4,23.1,4.3,32.7,11.2c1.2,0.9,2.6,1.3,4,1.3c2.1,0,4.3-1,5.6-2.9
		C462.9,158,462.2,153.7,459.2,151.4z"/>
	<path class="st1" d="M481,176.5c-1.8-3.4-6-4.6-9.3-2.8c-3.4,1.8-4.6,6-2.8,9.3c4.5,8.5,6.9,18.2,6.9,27.9
		c0,10.5-2.8,20.9-8.1,29.9c-1.9,3.3-0.8,7.5,2.5,9.4c1.1,0.6,2.3,0.9,3.5,0.9c2.4,0,4.7-1.2,6-3.4c6.5-11.2,10-23.9,10-36.9
		C489.6,198.9,486.6,187,481,176.5z"/>
</g>
</svg>
