<?xml version="1.0" encoding="utf-8"?>
<!-- Generator: Adobe Illustrator 23.0.1, SVG Export Plug-In . SVG Version: 6.00 Build 0)  -->
<svg version="1.1" id="Capa_1" xmlns="http://www.w3.org/2000/svg" xmlns:xlink="http://www.w3.org/1999/xlink" x="0px" y="0px"
	 viewBox="0 0 512 512" style="enable-background:new 0 0 512 512;" xml:space="preserve">
<style type="text/css">
	.st0{fill:#009D54;}
	.st1{fill:#00B1D1;}
	.st2{fill:#B52BB3;}
	.st3{fill:#FEE617;}
	.st4{opacity:0.5;fill:#FEE617;enable-background:new    ;}
	.st5{fill:#4E2E65;}
	.st6{fill:#FFFFFF;}
</style>
<g id="Light_icon">
	<path class="st3" d="M255.9,94c-80,0-145,65.1-145,145c0,60.7,37.5,114.4,93.8,135.6v77.6c0,4.7,3.8,8.5,8.5,8.5h8.5v17.1
		c0,4.7,3.8,8.5,8.5,8.5h51.2c4.7,0,8.5-3.8,8.5-8.5v-17.1h8.5c4.7,0,8.5-3.8,8.5-8.5v-77.6c56.4-21.2,93.8-75,93.8-135.6
		C400.9,159,335.9,94,255.9,94z M281.5,443.8c-4.7,0-8.5,3.8-8.5,8.5v17.1h-34.1v-17.1c0-4.7-3.8-8.5-8.5-8.5h-8.5V401h68.3v42.7
		H281.5z M295.9,360.5c-3.5,1.2-5.9,4.4-5.9,8.1V384h-68.3v-15.4c0-3.7-2.4-7-5.9-8.1c-52.6-17.3-88-66.1-88-121.5
		c0-70.6,57.4-128,128-128s128,57.4,128,128C383.9,294.3,348.5,343.1,295.9,360.5z"/>
	<path class="st3" d="M255.9,76.9c4.7,0,8.5-3.8,8.5-8.5V34.3c0-4.7-3.8-8.5-8.5-8.5s-8.5,3.8-8.5,8.5v34.1
		C247.4,73,251.2,76.9,255.9,76.9z"/>
	<path class="st3" d="M460.7,230.5h-34.1c-4.7,0-8.5,3.8-8.5,8.5s3.8,8.5,8.5,8.5h34.1c4.7,0,8.5-3.8,8.5-8.5
		S465.4,230.5,460.7,230.5z"/>
	<path class="st3" d="M85.3,230.5H51.2c-4.7,0-8.5,3.8-8.5,8.5s3.8,8.5,8.5,8.5h34.1c4.7,0,8.5-3.8,8.5-8.5S90,230.5,85.3,230.5z"/>
	<path class="st3" d="M394.7,88.1l-24.1,24.1c-3.3,3.3-3.3,8.7,0,12.1c1.7,1.7,3.8,2.5,6,2.5s4.4-0.8,6-2.5l24.1-24.1
		c3.3-3.3,3.3-8.7,0-12.1C403.4,84.9,398,84.9,394.7,88.1z"/>
	<path class="st3" d="M129.2,353.6l-24.1,24.1c-3.3,3.3-3.3,8.7,0,12.1c1.7,1.7,3.8,2.5,6,2.5s4.4-0.8,6-2.5l24.1-24.1
		c3.3-3.3,3.3-8.7,0-12.1S132.5,350.2,129.2,353.6z"/>
	<path class="st3" d="M382.6,353.6c-3.3-3.3-8.7-3.3-12.1,0c-3.3,3.3-3.3,8.7,0,12.1l24.1,24.1c1.7,1.7,3.8,2.5,6,2.5s4.4-0.8,6-2.5
		c3.3-3.3,3.3-8.7,0-12.1L382.6,353.6z"/>
	<path class="st3" d="M129.2,124.3c1.7,1.7,3.8,2.5,6,2.5s4.4-0.8,6-2.5c3.3-3.3,3.3-8.7,0-12.1l-24.1-24.1c-3.3-3.3-8.7-3.3-12.1,0
		s-3.3,8.7,0,12.1L129.2,124.3z"/>
	<path class="st4" d="M255.9,136.6c-56.5,0-102.4,45.9-102.4,102.4c0,4.7,3.8,8.5,8.5,8.5s8.5-3.8,8.5-8.5c0-47,38.3-85.3,85.3-85.3
		c4.7,0,8.5-3.8,8.5-8.5S260.6,136.6,255.9,136.6z"/>
</g>
</svg>
