<?xml version="1.0" encoding="utf-8"?>
<!-- Generator: Adobe Illustrator 23.0.1, SVG Export Plug-In . SVG Version: 6.00 Build 0)  -->
<svg version="1.1" id="Capa_1" xmlns="http://www.w3.org/2000/svg" xmlns:xlink="http://www.w3.org/1999/xlink" x="0px" y="0px"
	 viewBox="0 0 512 512" style="enable-background:new 0 0 512 512;" xml:space="preserve">
<style type="text/css">
	.st0{fill:#009D54;}
	.st1{fill:#00B1D1;}
	.st2{fill:#B52BB3;}
	.st3{fill:#FEE617;}
	.st4{opacity:0.5;fill:#FEE617;enable-background:new    ;}
	.st5{fill:#4E2E65;}
	.st6{fill:#FFFFFF;}
</style>
<g id="Presion_Icon">
	<path class="st5" d="M405.5,193c0-82.4-67-149.5-149.5-149.5s-149.5,67-149.5,149.5c0,82.4,67,149.5,149.5,149.5
		S405.5,275.4,405.5,193z M167.3,292.8l15.6-15.6l-11.1-11.1l-15.6,15.6c-8.3-9.4-15.4-19.9-20.8-31.4l21.9-11l-7-14.1l-20.8,10.4
		c-3.7-11.1-6-22.7-6.7-34.8H146v-15.7h-23.2c0.7-12.1,3-23.8,6.7-34.8l20.8,10.4l7-14.1l-21.9-11c5.5-11.5,12.5-22,20.8-31.4
		l15.6,15.6l11.1-11.1l-15.6-15.6c9.4-8.3,19.9-15.4,31.4-20.8l11,21.9l14.1-7l-10.4-20.8c11-3.7,22.7-6,34.8-6.7v23.2h15.7V59.7
		c12.1,0.7,23.8,3,34.8,6.7l-10.4,20.8l14.1,7l11-21.9c11.5,5.5,22,12.5,31.4,20.8l-15.6,15.6l11.1,11.1l15.6-15.6
		c8.3,9.4,15.4,19.9,20.8,31.4l-21.9,11l7,14.1l20.8-10.4c3.7,11,6,22.7,6.7,34.8h-23.2v15.7h23.2c-0.7,12.1-3,23.8-6.7,34.8
		l-20.8-10.4l-7,14.1l21.9,11c-5.5,11.5-12.5,22-20.8,31.4l-15.6-15.6l-11.1,11.1l15.6,15.6c-23.6,21-54.6,33.9-88.7,33.9
		S190.9,313.8,167.3,292.8z"/>
	<path class="st5" d="M314.8,123.4l-61.4,38.4c-16.1,1.4-28.8,14.8-28.8,31.2c0,17.4,14.1,31.5,31.5,31.5
		c16.4,0,29.8-12.7,31.2-28.8l38.4-61.4c1.9-3.1,1.5-7.1-1.1-9.7C321.9,121.9,317.9,121.4,314.8,123.4z M256,208.7
		c-8.7,0-15.7-7.1-15.7-15.7c0-8.7,7.1-15.7,15.7-15.7s15.7,7.1,15.7,15.7C271.7,201.6,264.7,208.7,256,208.7z M281.6,174.9
		c-2.1-2.9-4.6-5.5-7.5-7.5l20.1-12.6L281.6,174.9z"/>
	<path class="st5" d="M303.2,240.2h-94.4c-4.4,0-7.9,3.5-7.9,7.9v31.5c0,4.3,3.5,7.9,7.9,7.9h94.4c4.4,0,7.9-3.5,7.9-7.9v-31.5
		C311.1,243.7,307.5,240.2,303.2,240.2z M295.3,271.6h-78.7v-15.7h78.7V271.6z"/>
	<path class="st5" d="M436.9,193c0-99.8-81.2-180.9-180.9-180.9S75.1,93.3,75.1,193c0,89,64.7,163.2,149.5,178.1v18.5h-7.9
		c-4.4,0-7.9,3.5-7.9,7.9v23.6h-7.9c-4.4,0-7.9,3.5-7.9,7.9v31.5c0,4.3,3.5,7.9,7.9,7.9h7.9V492c0,4.3,3.5,7.9,7.9,7.9h78.7
		c4.4,0,7.9-3.5,7.9-7.9v-23.6h7.9c4.4,0,7.9-3.5,7.9-7.9V429c0-4.3-3.5-7.9-7.9-7.9h-7.9v-23.6c0-4.3-3.5-7.9-7.9-7.9h-7.9v-18.5
		C372.3,356.2,436.9,282,436.9,193z M90.8,193c0-91.1,74.1-165.2,165.2-165.2S421.2,101.9,421.2,193S347.1,358.2,256,358.2
		S90.8,284.1,90.8,193z M287.5,484h-62.9v-15.7h62.9V484z M303.2,452.6h-94.4v-15.7h94.4V452.6z M224.5,421.1v-15.7h62.9v15.7H224.5
		z M271.7,389.6h-31.5v-16.5c5.2,0.4,10.4,0.7,15.7,0.7s10.5-0.3,15.7-0.7v16.5H271.7z"/>
</g>
</svg>
