<?xml version="1.0" encoding="utf-8"?>
<!-- Generator: Adobe Illustrator 23.0.1, SVG Export Plug-In . SVG Version: 6.00 Build 0)  -->
<svg version="1.1" id="Capa_1" xmlns="http://www.w3.org/2000/svg" xmlns:xlink="http://www.w3.org/1999/xlink" x="0px" y="0px"
	 viewBox="0 0 512 512" style="enable-background:new 0 0 512 512;" xml:space="preserve">
<style type="text/css">
	.st0{fill:#009D54;}
	.st1{fill:#00B1D1;}
	.st2{fill:#B52BB3;}
	.st3{fill:#FEE617;}
	.st4{opacity:0.5;fill:#FEE617;enable-background:new    ;}
	.st5{fill:#4E2E65;}
	.st6{fill:#FFFFFF;}
</style>
<g id="Temperatura_Icon">
	<path class="st2" d="M277.2,289V164.4c0-4-3.2-7.2-7.2-7.2s-7.2,3.2-7.2,7.2v128.2c0,2.3,1.1,4.5,3,5.8
		c26.8,19.1,42.8,50.1,42.8,82.9c0,56.1-45.6,101.7-101.7,101.7s-101.7-45.6-101.7-101.7c0-32.8,16-63.8,42.8-82.9
		c1.9-1.3,3-3.5,3-5.8V84.8c0-30.8,25.1-55.9,55.9-55.9s55.9,25.1,55.9,55.9v50.9c0,4,3.2,7.2,7.2,7.2s7.2-3.2,7.2-7.2V84.8
		c0-38.8-31.5-70.3-70.3-70.3S136.7,46,136.7,84.8V289c-28.7,21.9-45.8,56.2-45.8,92.4c0,64,52.1,116.1,116.1,116.1
		s116.1-52.1,116.1-116.1C323.1,345.2,306,310.9,277.2,289z"/>
	<path class="st2" d="M207,444.9c-13.1,0-25.6-4-36.3-11.5c-3.2-2.3-7.7-1.5-10,1.8c-2.3,3.2-1.5,7.7,1.8,10
		c13.1,9.2,28.5,14.1,44.6,14.1c42.9,0,77.8-34.9,77.8-77.8c0-25.1-12.2-48.8-32.7-63.4l-13-9.3V85c0-17.7-14.4-32-32-32
		c-17.7,0-32,14.4-32,32v223.8l-13,9.3c-20.5,14.6-32.7,38.3-32.7,63.4c0,15.6,4.6,30.6,13.3,43.5c2.2,3.3,6.7,4.1,10,1.9
		s4.1-6.7,1.9-10c-7.1-10.5-10.8-22.8-10.8-35.4c0-20.5,10-39.8,26.7-51.8l16.1-11.4c1.9-1.3,3-3.5,3-5.8v-27.7h35.4v27.7
		c0,2.3,1.1,4.5,3,5.8l16.1,11.4c16.7,11.9,26.7,31.3,26.7,51.8C270.5,416.4,242,444.9,207,444.9z M224.7,160.7h-35.4v-40.5h35.4
		V160.7z M189.2,175.1h35.4v40.5h-35.4V175.1z M207,67.1c9.8,0,17.7,7.9,17.7,17.7v21.1h-35.4V84.8C189.2,75.1,197.2,67.1,207,67.1z
		 M189.2,270.3v-40.5h35.4v40.5H189.2z"/>
	<path class="st2" d="M413.1,174.9c-5,0-7.7,1.9-8.1,5.7c-1.1,8.5-2.7,21.2-22.6,21.2c-16.3,0-24.3-8.3-24.3-25.3v-54.7
		c0-16.8,8-25.3,23.7-25.3c18.3,0,22.7,11.1,23.2,20.5c0.2,3.7,3.1,5.7,8.1,5.7c5.1,0,8.1-1.4,8.1-8.8c0-18.9-16.4-32.1-39.8-32.1
		c-25.2,0-39.6,14.6-39.6,40.1v54.7c0,13.7,3.9,24.1,11.6,31c6.7,6,16.3,9.1,27.8,9.1c23.5,0,39.9-13.4,39.9-32.7
		C421.2,176.5,418.1,174.9,413.1,174.9z"/>
	<path class="st2" d="M352,61.2c0-12.9-10.5-23.4-23.4-23.4s-23.4,10.5-23.4,23.4s10.5,23.4,23.4,23.4S352,74.1,352,61.2z
		 M328.6,70.3c-5,0-9.1-4.1-9.1-9.1s4.1-9.1,9.1-9.1s9.1,4.1,9.1,9.1C337.7,66.2,333.6,70.3,328.6,70.3z"/>
</g>
</svg>
