<?xml version="1.0" encoding="utf-8"?>
<!-- Generator: Adobe Illustrator 23.0.1, SVG Export Plug-In . SVG Version: 6.00 Build 0)  -->
<svg version="1.1" id="Capa_1" xmlns="http://www.w3.org/2000/svg" xmlns:xlink="http://www.w3.org/1999/xlink" x="0px" y="0px"
	 viewBox="0 0 512 512" style="enable-background:new 0 0 512 512;" xml:space="preserve">
<style type="text/css">
	.st0{fill:#009D54;}
	.st1{fill:#00B1D1;}
	.st2{fill:#B52BB3;}
	.st3{fill:#FEE617;}
	.st4{opacity:0.5;fill:#FEE617;enable-background:new    ;}
	.st5{fill:#4E2E65;}
	.st6{fill:#FFFFFF;}
</style>
<g id="Anemómetro_Icon">
	<path class="st0" d="M238.7,398.3h32.9c4.5,0,8.2-3.7,8.2-8.2v-32.9c0-4.5-3.7-8.2-8.2-8.2h-32.9c-4.5,0-8.2,3.7-8.2,8.2v32.9
		C230.4,394.6,234.1,398.3,238.7,398.3z M246.9,365.4h16.4v16.4h-16.4V365.4z"/>
	<path class="st0" d="M142.9,176c-13.2-18.4-38.9-22.5-57.3-9.3C69.4,178.4,64,200,72.7,218l10.8,22.2c2,4.1,6.9,5.8,11,3.8l0,0
		l59.1-28.8c4.1-2,5.8-6.9,3.8-11l-6.7-13.7l96.2-46.8v74.8c-17.6,3.7-30.7,18.5-32.4,36.4c-10.4,5.8-16.8,16.7-16.9,28.5v172.5
		c0,4.5,3.7,8.2,8.2,8.2h0.8c3.9,19.1,20.7,32.8,40.3,32.9h16.4c19.5,0,36.3-13.8,40.3-32.9h0.8c4.5,0,8.2-3.7,8.2-8.2V283.4
		c0-11.8-6.5-22.7-16.8-28.5c-1.7-17.9-14.8-32.7-32.5-36.4v-74.8l91,44.3c-7,21.5,4.7,44.6,26.2,51.6c4.1,1.3,8.4,2,12.6,2
		c15.7,0,30.1-9,37-23.1l10.8-22.2c2-4.1,0.3-9-3.8-11l0,0L378,156.5c-4.1-2-9-0.3-11,3.8l0,0l-6.1,12.5l-87.1-42.4L369.4,84
		c4.9,6.8,11.8,11.9,19.7,14.7c4.3,1.5,8.9,2.3,13.4,2.3c22.7,0,41.1-18.5,41-41.2c0-6.2-1.4-12.3-4.1-17.9l-10.8-22.2
		c-2-4.1-6.9-5.8-11-3.8l-59.1,28.8c-4.1,2-5.8,6.9-3.8,11l0,0l6.8,13.9l-98.3,47.8v-14.8c0-4.5-3.7-8.2-8.2-8.2s-8.2,3.7-8.2,8.2
		v14.9l-88.6-43.1c6.6-21.7-5.6-44.6-27.2-51.2c-19.3-5.9-40,3.1-48.9,21.3L71.3,66.7c-2,4.1-0.3,9,3.8,11l59.1,28.8
		c4.1,2,9,0.3,11-3.8l6.4-13.1l84.6,41.2L142.9,176L142.9,176z M94.7,225.5l-7.2-14.8c-6.1-12.1-1.3-27,10.9-33.1
		c12.1-6.1,27-1.3,33.1,10.9c0.1,0.2,0.2,0.5,0.3,0.7L139,204L94.7,225.5z M371.1,189.7l7.2-14.8l44.4,21.6l-7.2,14.8
		c-6,12.3-20.7,17.4-33,11.4C370.2,216.7,365.1,202,371.1,189.7z M417.6,34.4l7.2,14.8c6,12.3,0.8,27-11.4,33s-27,0.9-33-11.4
		L373.2,56L417.6,34.4z M263.3,480.5h-16.4c-10.4,0-19.7-6.6-23.2-16.4h62.9C283.1,473.9,273.7,480.4,263.3,480.5z M296.2,447.6H214
		V316.2h82.2V447.6z M296.2,283.9v15.9H214v-15.9c0-9.1,7.4-16.4,16.4-16.4h49.3C288.8,267.4,296.2,274.8,296.2,283.9z M255.1,234
		c10.4,0,19.7,6.6,23.2,16.4h-46.4C235.4,240.6,244.7,234,255.1,234z M141.3,73.1l-7.2,14.8L89.8,66.4L97,51.6
		c6-12.2,20.7-17.4,33-11.4C142.2,46.2,147.3,60.9,141.3,73.1L141.3,73.1z"/>
</g>
</svg>
