<?xml version="1.0" encoding="utf-8"?>
<!-- Generator: Adobe Illustrator 23.0.1, SVG Export Plug-In . SVG Version: 6.00 Build 0)  -->
<svg version="1.1" id="Capa_1" xmlns="http://www.w3.org/2000/svg" xmlns:xlink="http://www.w3.org/1999/xlink" x="0px" y="0px"
	 viewBox="0 0 512 512" style="enable-background:new 0 0 512 512;" xml:space="preserve">
<style type="text/css">
	.st0{fill:#009D54;}
	.st1{fill:#00B1D1;}
	.st2{fill:#B52BB3;}
	.st3{fill:#FEE617;}
	.st4{opacity:0.5;fill:#FEE617;enable-background:new    ;}
	.st5{fill:#4E2E65;}
	.st6{fill:#FFFFFF;}
</style>
<g id="Voltaje_Icon">
	<path class="st0" d="M287.2,126.8V68.6c0-5.7-4.6-10.3-10.3-10.3H102.4c-5.7,0-10.3,4.6-10.3,10.3v58.2c0,5.7,4.6,10.3,10.3,10.3
		h174.5C282.6,137.1,287.2,132.5,287.2,126.8z M266.7,116.6h-154V79h154V116.6z"/>
	<path class="st0" d="M242.9,181.2c-29.4-29.4-77.1-29.3-106.5,0c-29.3,29.4-29.3,77.1,0,106.5c14.7,14.7,34,22,53.2,22
		c19.3,0,38.6-7.3,53.2-22C272.3,258.3,272.3,210.5,242.9,181.2z M228.4,195.7c18.9,18.9,21,48.2,6.6,69.5l-76-76
		c9.2-6.3,20-9.4,30.8-9.4C203.7,179.7,217.7,185,228.4,195.7z M151,273.1c-18.9-18.9-21-48.2-6.6-69.5l76,76
		C199.1,294.1,169.8,292,151,273.1z"/>
	<path class="st0" d="M445.5,60.4V20.8c0-5.7-4.6-10.3-10.3-10.3s-10.3,4.6-10.3,10.3v39.6c-10,4.1-17.1,13.9-17.1,25.4v83.8
		c0,5.7,4.6,10.3,10.3,10.3h6.8v206.6c0,52.1-42.4,94.6-94.6,94.6c-50.8,0-92.4-40.3-94.5-90.7h37.4v5.9c0,29.8,24.2,54,54,54
		s54-24.2,54-54V179.9h6.8c5.7,0,10.3-4.6,10.3-10.3V85.8c0-11.5-7.1-21.3-17.1-25.4V20.8c0-5.7-4.6-10.3-10.3-10.3
		s-10.3,4.6-10.3,10.3v39.6c-10,4.1-17.1,13.9-17.1,25.4v83.8c0,5.7,4.6,10.3,10.3,10.3h6.8v216.4c0,18.4-15,33.4-33.4,33.4
		s-33.4-15-33.4-33.4v-7.1c20.6-4.7,36.1-23.1,36.1-45.2V56.8c0-25.5-20.8-46.3-46.3-46.3H95.7c-25.5,0-46.3,20.8-46.3,46.3V344
		c0,25.5,20.8,46.3,46.3,46.3h119.7c2.1,61.7,52.9,111.2,115,111.2c63.5,0,115.1-51.6,115.1-115.1V179.8h6.8
		c5.7,0,10.3-4.6,10.3-10.3V85.7C462.6,74.3,455.5,64.5,445.5,60.4z M377.9,85.8v73.6h-13.7V85.8c0-3.8,3.1-6.8,6.8-6.8
		C374.8,78.9,377.9,82,377.9,85.8z M69.9,344V56.8C69.9,42.6,81.5,31,95.7,31h187.9c14.2,0,25.8,11.6,25.8,25.8V344
		c0,14.2-11.6,25.8-25.8,25.8H95.7C81.5,369.8,69.9,358.2,69.9,344z M442.1,85.8v73.6h-13.7V85.8c0-3.8,3.1-6.8,6.8-6.8
		S442.1,82,442.1,85.8z"/>
	<path class="st1" d="M240.8,333h-25.7c-5.7,0-10.3,4.6-10.3,10.3c0,5.7,4.6,10.3,10.3,10.3h25.7c5.7,0,10.3-4.6,10.3-10.3
		C251,337.6,246.4,333,240.8,333z"/>
	<path class="st2" d="M293,334.6h-5.5v-5.5c0-4.8-3.9-8.8-8.8-8.8s-8.8,3.9-8.8,8.8v5.5h-5.5c-4.8,0-8.8,3.9-8.8,8.8
		c0,4.8,3.9,8.8,8.8,8.8h5.5v5.5c0,4.8,3.9,8.8,8.8,8.8s8.8-3.9,8.8-8.8v-5.5h5.5c4.8,0,8.8-3.9,8.8-8.8S297.9,334.6,293,334.6z"/>
</g>
</svg>
